<svg 
 xmlns="http://www.w3.org/2000/svg"
 xmlns:xlink="http://www.w3.org/1999/xlink"
 width="46px" height="44px">
<path fill-rule="evenodd"  fill="rgb(255, 255, 255)"
 d="M10.000,0.000 L36.000,0.000 C41.523,0.000 46.000,4.477 46.000,10.000 L46.000,34.000 C46.000,39.523 41.523,44.000 36.000,44.000 L10.000,44.000 C4.477,44.000 -0.000,39.523 -0.000,34.000 L-0.000,10.000 C-0.000,4.477 4.477,0.000 10.000,0.000 ZM11.000,2.000 L35.000,2.000 C39.971,2.000 44.000,6.029 44.000,11.000 L44.000,33.000 C44.000,37.971 39.971,42.000 35.000,42.000 L28.777,42.000 L29.000,25.000 L34.000,25.000 L34.000,21.000 L29.000,21.000 L29.120,14.676 C29.120,14.676 29.224,13.949 30.000,13.000 C30.742,12.093 32.081,12.006 32.081,12.006 L35.000,12.000 L35.000,8.000 L28.000,8.000 C27.993,8.005 26.050,8.449 25.000,10.000 C24.082,11.356 24.000,14.000 24.000,14.000 L24.000,21.000 L20.000,21.000 L20.000,25.000 L24.000,25.000 L23.994,42.000 L11.000,42.000 C6.029,42.000 2.000,37.971 2.000,33.000 L2.000,11.000 C2.000,6.029 6.029,2.000 11.000,2.000 Z"/>
</svg>