<svg 
 xmlns="http://www.w3.org/2000/svg"
 xmlns:xlink="http://www.w3.org/1999/xlink"
 width="46px" height="44px">
<path fill-rule="evenodd"  fill="rgb(255, 255, 255)"
 d="M10.000,0.000 L36.000,0.000 C41.523,0.000 46.000,4.477 46.000,10.000 L46.000,34.000 C46.000,39.523 41.523,44.000 36.000,44.000 L10.000,44.000 C4.477,44.000 -0.000,39.523 -0.000,34.000 L-0.000,10.000 C-0.000,4.477 4.477,0.000 10.000,0.000 ZM23.000,10.000 C29.627,10.000 35.000,15.373 35.000,22.000 C35.000,28.627 29.627,34.000 23.000,34.000 C16.373,34.000 11.000,28.627 11.000,22.000 C11.000,15.373 16.373,10.000 23.000,10.000 ZM36.000,7.000 C37.657,7.000 39.000,8.343 39.000,10.000 C39.000,11.657 37.657,13.000 36.000,13.000 C34.343,13.000 33.000,11.657 33.000,10.000 C33.000,8.343 34.343,7.000 36.000,7.000 ZM23.000,12.000 C28.247,12.000 33.000,16.753 33.000,22.000 C33.000,27.247 28.247,32.000 23.000,32.000 C17.753,32.000 13.000,27.247 13.000,22.000 C13.000,16.753 17.753,12.000 23.000,12.000 ZM11.000,2.000 L35.000,2.000 C39.971,2.000 44.000,6.029 44.000,11.000 L44.000,33.000 C44.000,37.971 39.971,42.000 35.000,42.000 L11.000,42.000 C6.029,42.000 2.000,37.971 2.000,33.000 L2.000,11.000 C2.000,6.029 6.029,2.000 11.000,2.000 Z"/>
</svg>