<svg 
 xmlns="http://www.w3.org/2000/svg"
 xmlns:xlink="http://www.w3.org/1999/xlink"
 width="442px" height="599px">
<path fill-rule="evenodd"  fill="rgb(255, 255, 255)"
 d="M371.812,598.723 L349.370,546.347 L219.706,546.347 L247.135,483.994 L324.435,483.994 L274.564,371.760 L164.848,598.723 L92.536,598.723 L234.667,309.407 L441.631,309.407 L441.631,598.723 L371.812,598.723 ZM371.812,199.666 L304.486,199.666 L304.486,264.513 L244.642,204.655 C244.642,204.655 263.160,196.661 279.551,174.725 C293.142,156.538 294.512,137.314 294.512,137.314 L371.812,137.314 L371.812,0.138 L441.631,0.138 L441.631,289.454 L371.812,289.454 L371.812,199.666 ZM249.629,177.220 C239.641,186.719 228.108,195.282 214.719,199.666 L304.486,289.454 L232.174,289.454 L144.917,198.887 L69.960,198.887 L70.094,289.454 L0.275,289.454 L0.275,104.891 L70.094,104.891 L69.960,137.143 L176.330,137.143 C189.965,137.143 199.461,130.327 204.821,116.684 C207.012,111.084 207.239,105.993 207.239,99.902 C207.239,85.049 202.259,74.301 192.277,67.479 C187.164,64.317 183.400,62.491 177.316,62.491 L70.094,62.491 L0.275,62.491 L0.275,0.138 L177.060,0.138 C212.856,0.138 240.616,13.171 260.341,39.230 C274.221,57.743 281.161,78.814 281.161,102.435 C281.161,130.693 268.622,158.952 249.629,177.220 ZM209.732,309.407 L177.316,371.760 L0.275,371.760 L0.275,309.407 L209.732,309.407 ZM122.458,483.994 L0.000,484.000 L0.000,426.630 L152.381,426.630 L122.458,483.994 Z"/>
<path fill-rule="evenodd"  fill="rgb(221, 102, 255)"
 d="M371.812,598.723 L349.370,546.347 L219.706,546.347 L247.135,483.994 L324.435,483.994 L292.817,412.838 C292.817,412.838 337.799,380.121 376.000,388.000 C419.562,396.984 441.631,442.178 441.631,442.178 L441.631,598.723 L371.812,598.723 ZM371.812,216.749 L371.812,199.666 L304.486,199.666 L304.486,264.513 L244.642,204.655 C244.642,204.655 263.160,196.661 279.551,174.725 C293.142,156.538 294.512,137.314 294.512,137.314 L371.812,137.314 L371.812,0.138 L441.631,0.138 L441.631,103.953 C441.631,103.953 431.834,139.804 415.000,167.000 C396.966,196.135 371.812,216.749 371.812,216.749 ZM249.629,177.220 C239.641,186.719 228.108,195.282 214.719,199.666 L277.923,262.885 C277.923,262.885 261.121,261.669 241.000,256.000 C213.349,248.210 179.944,235.281 179.944,235.281 L144.917,198.887 L92.991,198.887 C92.991,198.887 65.572,188.450 41.000,177.000 C19.407,166.938 0.275,155.684 0.275,155.684 L0.275,104.891 L70.094,104.891 L69.960,137.143 L176.330,137.143 C189.965,137.143 199.461,130.327 204.821,116.684 C207.012,111.084 207.239,105.993 207.239,99.902 C207.239,85.049 202.259,74.301 192.277,67.479 C187.164,64.317 183.400,62.491 177.316,62.491 L70.094,62.491 L0.275,62.491 L0.275,0.138 L52.176,0.138 C52.176,0.138 74.600,23.000 97.000,23.000 C121.891,23.000 147.022,0.138 147.022,0.138 L177.060,0.138 C212.856,0.138 240.616,13.171 260.341,39.230 C274.221,57.743 281.161,78.814 281.161,102.435 C281.161,130.693 268.622,158.952 249.629,177.220 ZM31.000,456.000 C37.584,470.902 46.372,483.998 46.372,483.998 L0.000,484.000 L0.000,426.630 L21.025,426.630 C21.025,426.630 24.932,442.266 31.000,456.000 ZM168.000,503.000 C196.204,485.354 233.147,457.438 233.147,457.438 L164.848,598.723 L92.536,598.723 L130.350,521.752 C130.350,521.752 145.442,517.113 168.000,503.000 Z"/>
<path fill-rule="evenodd"  fill="rgb(216, 82, 255)"
 d="M371.812,598.723 L349.370,546.347 L219.706,546.347 L247.135,483.994 L324.435,483.994 L302.024,433.559 C302.024,433.559 332.561,405.854 377.000,414.000 C421.462,422.150 441.631,466.482 441.631,466.482 L441.631,598.723 L371.812,598.723 ZM371.936,199.666 L304.486,199.666 L304.486,226.763 C304.486,226.763 295.755,228.944 287.000,229.000 C277.076,229.063 266.983,227.001 266.983,227.001 L244.642,204.655 C244.642,204.655 263.160,196.661 279.551,174.725 C293.142,156.538 294.512,137.314 294.512,137.314 L371.812,137.314 L371.812,0.138 L441.631,0.138 L441.631,80.804 C441.631,80.804 433.247,124.585 413.000,153.000 C390.974,183.911 371.936,199.666 371.936,199.666 ZM269.577,25.079 C255.205,7.402 237.161,0.138 237.161,0.138 L294.512,0.138 L294.512,67.479 C294.512,67.479 285.902,45.159 269.577,25.079 ZM281.161,102.435 C281.161,130.693 268.622,158.952 249.629,177.220 C239.641,186.719 228.108,195.282 214.719,199.666 L234.749,219.701 C234.749,219.701 185.149,208.824 129.000,186.000 C68.105,161.247 0.275,124.389 0.275,124.389 L0.275,104.891 L70.094,104.891 L69.960,137.143 L176.330,137.143 C189.965,137.143 199.461,130.327 204.821,116.684 C207.012,111.084 207.239,105.993 207.239,99.902 C207.239,85.049 202.259,74.301 192.277,67.479 C187.164,64.317 183.400,62.491 177.316,62.491 L70.094,62.491 L0.275,62.491 L0.275,0.138 L23.926,0.138 C23.926,0.138 58.800,54.000 91.000,54.000 C142.138,54.000 182.090,3.948 184.889,0.359 C216.926,2.149 242.079,15.104 260.341,39.230 C274.221,57.743 281.161,78.814 281.161,102.435 ZM184.623,0.339 C182.143,0.205 185.060,0.138 185.060,0.138 C185.060,0.138 184.993,0.226 184.889,0.359 C184.799,0.354 184.713,0.343 184.623,0.339 ZM18.000,453.000 C24.016,468.130 32.543,483.994 32.543,483.994 L0.275,483.994 L0.275,426.630 L9.734,426.630 C9.734,426.630 12.651,439.547 18.000,453.000 ZM67.601,598.723 L0.275,598.723 L0.275,546.347 L95.029,546.347 L67.601,598.723 ZM160.000,532.000 C185.868,518.208 214.650,495.701 214.650,495.701 L164.848,598.723 L92.536,598.723 L117.773,547.351 C117.773,547.351 137.695,543.892 160.000,532.000 Z"/>
</svg>